<svg xmlns="http://www.w3.org/2000/svg" width="18.671" height="18.671" viewBox="0 0 18.671 18.671"><defs><style>.a{fill:none;}.b{fill:#fff;}</style></defs><g transform="translate(0)"><path class="a" d="M0,18.671V0H18.671V18.671Z"/><g transform="translate(0.747 0.747)"><path class="b" d="M16.269,7.68a8.589,8.589,0,1,0,8.589,8.589A8.594,8.594,0,0,0,16.269,7.68Zm0,.747a7.842,7.842,0,1,1-7.842,7.842A7.836,7.836,0,0,1,16.269,8.427Zm.213,2.614c-2.855,0-4.694,2.024-4.694,3.976a2.417,2.417,0,0,0,1.276,2.48c.221.129.377.038.427-.137l.133-.532a.289.289,0,0,0-.061-.289,1.793,1.793,0,0,1-.476-1.335,3.119,3.119,0,0,1,3.261-3.068,2.451,2.451,0,0,1,2.769,2.455c0,1.382-.662,3.449-2.06,3.449a1.035,1.035,0,0,1-1.118-1,1.108,1.108,0,0,1,.031-.276c.011-.053.364-1.177.476-1.578.252-.9.036-1.645-.789-1.645-1.164,0-1.583,1.638-1.072,2.686l-.831,3.4a8.8,8.8,0,0,0-.137.885,10.044,10.044,0,0,0,.062,1.473c.018.161.018.239.092.253s.2-.11.3-.26A10.048,10.048,0,0,0,14.8,20.8a4.04,4.04,0,0,0,.346-.968c.162-.613.381-1.475.381-1.475a1.909,1.909,0,0,0,1.687.8c1.751,0,3.531-1.525,3.531-4.375C20.75,12.466,18.748,11.041,16.482,11.041Z" transform="translate(-7.68 -7.68)"/></g></g></svg>