<svg xmlns="http://www.w3.org/2000/svg" width="20.839" height="20.829" viewBox="0 0 20.839 20.829"><defs><style>.a{fill:none;}.b{fill:#fff;}</style></defs><g transform="translate(0)"><path class="a" d="M0,20.829V0H20.829V20.829Z" transform="translate(0.003)"/><g transform="translate(0 2.278)"><path class="b" d="M14.227,21A4.522,4.522,0,0,0,9.71,25.517a4.438,4.438,0,0,0,.052.443,11.2,11.2,0,0,1-7.654-4.049.419.419,0,0,0-.36-.158.415.415,0,0,0-.33.21,4.423,4.423,0,0,0,.3,4.934c-.107-.047-.225-.073-.325-.13a.416.416,0,0,0-.612.365v.052a4.494,4.494,0,0,0,1.966,3.684.312.312,0,0,1-.039,0,.416.416,0,0,0-.469.534,4.526,4.526,0,0,0,3.124,2.955,7.783,7.783,0,0,1-4,1.107,7.819,7.819,0,0,1-.924-.052.417.417,0,0,0-.273.768,12.014,12.014,0,0,0,6.509,1.914,11.7,11.7,0,0,0,8.982-3.944A12.536,12.536,0,0,0,18.77,26c0-.119-.01-.234-.013-.351a8.725,8.725,0,0,0,1.979-2.07.417.417,0,0,0-.521-.612c-.215.1-.465.106-.69.182a4.421,4.421,0,0,0,.7-1.3.416.416,0,0,0-.612-.482,7.806,7.806,0,0,1-2.33.9A4.484,4.484,0,0,0,14.227,21Zm0,.833A3.688,3.688,0,0,1,16.922,23a.419.419,0,0,0,.391.117,8.574,8.574,0,0,0,1.562-.469,3.709,3.709,0,0,1-1.067.976.417.417,0,0,0,.273.781,8.607,8.607,0,0,0,1.185-.325,7.912,7.912,0,0,1-1.172,1.041.415.415,0,0,0-.169.364c.007.169.013.337.013.508a11.72,11.72,0,0,1-2.9,7.589,10.822,10.822,0,0,1-8.357,3.671,11.14,11.14,0,0,1-4.647-1.015A8.623,8.623,0,0,0,6.716,34.46a.417.417,0,0,0-.247-.742,3.649,3.649,0,0,1-3.137-1.953H3.4a4.544,4.544,0,0,0,1.2-.156.417.417,0,0,0-.026-.807A3.658,3.658,0,0,1,1.717,27.8a4.422,4.422,0,0,0,1.315.273.417.417,0,0,0,.247-.768,3.689,3.689,0,0,1-1.64-3.072A3.62,3.62,0,0,1,1.925,22.9a12.025,12.025,0,0,0,8.292,3.97.422.422,0,0,0,.342-.146.416.416,0,0,0,.088-.361,3.718,3.718,0,0,1-.1-.846A3.677,3.677,0,0,1,14.227,21.833Z" transform="translate(0.031 -21)"/></g></g></svg>