<svg xmlns="http://www.w3.org/2000/svg" width="23.283" height="23.284" viewBox="0 0 23.283 23.284"><defs><style>.a{fill:none;}.b{fill:#fff;}</style></defs><g transform="translate(0)"><path class="a" d="M0,23.283V0H23.283V23.283Z"/><g transform="translate(1.397 1.397)"><path class="b" d="M17.574,11.52a6.061,6.061,0,0,0-6.054,6.054v8.382a6.061,6.061,0,0,0,6.054,6.054h8.382a6.061,6.061,0,0,0,6.054-6.054V17.574a6.061,6.061,0,0,0-6.054-6.054Zm0,.931h8.382a5.116,5.116,0,0,1,5.122,5.122v8.382a5.116,5.116,0,0,1-5.122,5.122H17.574a5.116,5.116,0,0,1-5.122-5.122V17.574A5.116,5.116,0,0,1,17.574,12.451Zm9.779,2.794a.931.931,0,1,0,.931.931A.931.931,0,0,0,27.353,15.245Zm-5.588,1.4a5.122,5.122,0,1,0,5.122,5.122A5.129,5.129,0,0,0,21.765,16.642Zm0,.931a4.191,4.191,0,1,1-4.191,4.191A4.184,4.184,0,0,1,21.765,17.574Z" transform="translate(-11.52 -11.52)"/></g></g></svg>