<svg xmlns="http://www.w3.org/2000/svg" width="28.947" height="28.947" viewBox="0 0 28.947 28.947"><defs><style>.a{fill:none;}.b{fill:#fff;}</style></defs><path class="a" d="M0,28.947V0H28.947V28.947Z"/><g transform="translate(1.737 5.211)"><path class="b" d="M23.911,34.56a52.281,52.281,0,0,0-9.322.694,3.213,3.213,0,0,0-2.605,2.49,37.646,37.646,0,0,0-.464,6.079,31.509,31.509,0,0,0,.52,6.079,3.3,3.3,0,0,0,2.605,2.49,53.276,53.276,0,0,0,9.322.694,53.228,53.228,0,0,0,9.32-.694,3.21,3.21,0,0,0,2.605-2.49,43.719,43.719,0,0,0,.579-6.135,31.4,31.4,0,0,0-.579-6.138,3.289,3.289,0,0,0-2.605-2.49,72.246,72.246,0,0,0-9.376-.579Zm0,1.158a57.744,57.744,0,0,1,9.146.635,2.124,2.124,0,0,1,1.678,1.565,31.709,31.709,0,0,1,.579,5.848,42.654,42.654,0,0,1-.579,5.961c-.172,1.1-1.33,1.447-1.678,1.565a53.092,53.092,0,0,1-9.032.692,47.376,47.376,0,0,1-9.03-.692,2.124,2.124,0,0,1-1.678-1.565,22.77,22.77,0,0,1-.638-5.9,32.232,32.232,0,0,1,.464-5.846c.174-1.1,1.389-1.45,1.678-1.565a50.8,50.8,0,0,1,9.091-.694Zm-3.128,3.474v9.263l8.105-4.632Zm1.158,1.97,4.632,2.662-4.632,2.662Z" transform="translate(-11.52 -34.56)"/></g></svg>