<svg xmlns="http://www.w3.org/2000/svg" width="23.853" height="23.853" viewBox="0 0 23.853 23.853"><defs><style>.a{fill:none;}.b{fill:#fff;}</style></defs><g transform="translate(0)"><path class="a" d="M0,23.853V0H23.853V23.853Z"/><g transform="translate(1.908 1.908)"><path class="b" d="M19.185,16.8A2.393,2.393,0,0,0,16.8,19.185V34.451a2.393,2.393,0,0,0,2.385,2.385h8.03a.477.477,0,0,0,.156,0h2.707a.477.477,0,0,0,.156,0h4.218a2.393,2.393,0,0,0,2.385-2.385V19.185A2.393,2.393,0,0,0,34.451,16.8Zm0,.954H34.451a1.424,1.424,0,0,1,1.431,1.431V34.451a1.424,1.424,0,0,1-1.431,1.431H30.635V29.2h1.823l.668-3.339H30.635V24.91c0-.266.025-.287.115-.345a1.86,1.86,0,0,1,.84-.132H33.02V21.747l-.272-.13a6.581,6.581,0,0,0-2.59-.524,3.139,3.139,0,0,0-2.519,1.133,4.242,4.242,0,0,0-.82,2.683v.954H25.387V29.2h1.431v6.679H19.185a1.424,1.424,0,0,1-1.431-1.431V19.185A1.424,1.424,0,0,1,19.185,17.754Zm10.972,4.294a5.02,5.02,0,0,1,1.908.335v1.1h-.477a2.4,2.4,0,0,0-1.359.286,1.348,1.348,0,0,0-.549,1.145v1.908h2.28l-.286,1.431H29.681v7.633H27.772V28.249H26.341V26.818h1.431V24.91a3.33,3.33,0,0,1,.611-2.087,2.105,2.105,0,0,1,1.774-.775Z" transform="translate(-16.8 -16.8)"/></g></g></svg>