<svg xmlns="http://www.w3.org/2000/svg" width="24.005" height="24.005" viewBox="0 0 24.005 24.005"><defs><style>.a{fill:none;}.b{fill:#fff;}</style></defs><path class="a" d="M0,24V0H24V24Z"/><g transform="translate(1.92 1.92)"><path class="b" d="M17.76,15.36a2.408,2.408,0,0,0-2.4,2.4V33.124a2.408,2.408,0,0,0,2.4,2.4H33.124a2.408,2.408,0,0,0,2.4-2.4V17.76a2.408,2.408,0,0,0-2.4-2.4Zm0,.96H33.124a1.433,1.433,0,0,1,1.44,1.44V33.124a1.433,1.433,0,0,1-1.44,1.44H17.76a1.433,1.433,0,0,1-1.44-1.44V17.76A1.433,1.433,0,0,1,17.76,16.32Zm2.4,2.406a2.073,2.073,0,0,0-1.349.452,1.583,1.583,0,0,0-.565,1.207,1.771,1.771,0,0,0,1.767,1.664h0a.474.474,0,0,0,.146.025,1.8,1.8,0,0,0,1.915-1.691q0-.013,0-.025a1.818,1.818,0,0,0-1.914-1.633Zm0,.949c.668,0,.932.3.961.722-.006.411-.26.73-.961.73-.665,0-.966-.341-.966-.742a.588.588,0,0,1,.227-.481A1.134,1.134,0,0,1,20.161,19.675Zm-1.44,2.886a.48.48,0,0,0-.48.48v9.122a.48.48,0,0,0,.48.48H21.6a.48.48,0,0,0,.48-.48V23.042a.48.48,0,0,0-.48-.48Zm4.321,0a.48.48,0,0,0-.48.48v9.122a.48.48,0,0,0,.48.48h2.881a.48.48,0,0,0,.48-.48v-4.8a1.839,1.839,0,0,1,.3-1.054.962.962,0,0,1,.892-.407,1.039,1.039,0,0,1,.913.425,1.777,1.777,0,0,1,.3,1.036v4.8a.48.48,0,0,0,.48.48h2.881a.48.48,0,0,0,.48-.48V27.008A4.692,4.692,0,0,0,31.5,23.7a3.779,3.779,0,0,0-2.788-1.136,4.191,4.191,0,0,0-2.31.684v-.2a.48.48,0,0,0-.48-.48Zm-3.841.96h1.92v8.162H19.2Zm4.321,0h1.92v.749a.48.48,0,0,0,.864.289,3.016,3.016,0,0,1,2.407-1.038,2.785,2.785,0,0,1,2.091.836,3.716,3.716,0,0,1,.88,2.65v4.675h-1.92V27.362a2.675,2.675,0,0,0-.485-1.61,2.089,2.089,0,0,0-1.667-.811,2.018,2.018,0,0,0-1.681.8,2.719,2.719,0,0,0-.488,1.623v4.321h-1.92Z" transform="translate(-15.36 -15.36)"/></g></svg>